<mxfile host="app.diagrams.net" agent="Mozilla/5.0 (Windows NT 10.0; Win64; x64) AppleWebKit/537.36 (KHTML, like Gecko) Chrome/132.0.0.0 Safari/537.36" version="26.0.11">
  <diagram name="Page-1" id="boiUcE6evmJbD3y711yn">
    <mxGraphModel dx="880" dy="444" grid="1" gridSize="10" guides="1" tooltips="1" connect="1" arrows="1" fold="1" page="1" pageScale="1" pageWidth="850" pageHeight="1100" math="0" shadow="0">
      <root>
        <mxCell id="0" />
        <mxCell id="1" parent="0" />
        <mxCell id="OJgz8qcYppBPsV6eMr2C-1" value="Consumer&lt;div&gt;&lt;br&gt;&lt;/div&gt;" style="shape=umlActor;verticalLabelPosition=bottom;verticalAlign=top;html=1;outlineConnect=0;" vertex="1" parent="1">
          <mxGeometry x="120" y="120" width="30" height="60" as="geometry" />
        </mxCell>
        <mxCell id="OJgz8qcYppBPsV6eMr2C-3" value="app" style="rounded=0;whiteSpace=wrap;html=1;" vertex="1" parent="1">
          <mxGeometry x="290" y="60" width="190" height="210" as="geometry" />
        </mxCell>
        <mxCell id="OJgz8qcYppBPsV6eMr2C-9" value="&lt;div&gt;Provider&lt;/div&gt;" style="shape=umlActor;verticalLabelPosition=bottom;verticalAlign=top;html=1;outlineConnect=0;" vertex="1" parent="1">
          <mxGeometry x="630" y="100" width="30" height="60" as="geometry" />
        </mxCell>
        <mxCell id="OJgz8qcYppBPsV6eMr2C-13" value="&lt;div&gt;Admin&lt;/div&gt;" style="shape=umlActor;verticalLabelPosition=bottom;verticalAlign=top;html=1;outlineConnect=0;" vertex="1" parent="1">
          <mxGeometry x="360" y="310" width="30" height="60" as="geometry" />
        </mxCell>
        <mxCell id="OJgz8qcYppBPsV6eMr2C-14" value="services" style="rounded=1;whiteSpace=wrap;html=1;" vertex="1" parent="1">
          <mxGeometry x="325" y="80" width="120" height="30" as="geometry" />
        </mxCell>
        <mxCell id="OJgz8qcYppBPsV6eMr2C-15" value="payment" style="rounded=1;whiteSpace=wrap;html=1;" vertex="1" parent="1">
          <mxGeometry x="325" y="160" width="120" height="30" as="geometry" />
        </mxCell>
        <mxCell id="OJgz8qcYppBPsV6eMr2C-16" value="Location" style="rounded=1;whiteSpace=wrap;html=1;" vertex="1" parent="1">
          <mxGeometry x="325" y="220" width="120" height="30" as="geometry" />
        </mxCell>
      </root>
    </mxGraphModel>
  </diagram>
</mxfile>
